# Blender 4.4.3
# www.blender.org
mtllib robot cat paw1.mtl
o Cube
v -0.620117 0.019860 1.000000
v -0.620117 4.154440 1.000000
v -0.620117 0.019860 0.000000
v 0.620117 0.019860 1.000000
v 0.620117 4.154440 1.000000
v 0.620117 0.019860 0.000000
v -0.620117 4.154440 0.000000
v -1.092331 5.133510 1.389320
v 1.092331 5.133510 1.389320
v -1.092331 6.859940 1.389320
v 1.092331 6.859940 1.389320
v 0.590381 4.529267 0.781128
v 0.590381 5.764919 0.781128
v 1.360441 4.529267 0.781128
v 1.360441 5.764919 0.781128
v 1.055344 6.072320 0.192045
v 1.055344 6.072320 0.650360
v 1.055344 7.072320 0.192045
v 1.055344 7.072320 0.650360
v 1.360027 6.072320 0.192045
v 1.360027 6.072320 0.650360
v 1.360027 7.072320 0.192045
v 1.360027 7.072320 0.650360
v 1.057029 5.749642 0.859176
v 1.057029 5.749642 1.332287
v 1.057029 6.749641 0.859176
v 1.057029 6.749641 1.332287
v 1.361712 5.749642 0.859176
v 1.361712 5.749642 1.332287
v 1.361712 6.749641 0.859176
v 1.361712 6.749641 1.332287
v -1.092331 6.859940 1.389320
v 1.092331 6.859940 1.389320
v -0.759597 7.181342 1.114995
v 0.759597 7.181342 1.114995
v -0.759597 7.181342 1.114995
v 0.759597 7.181342 1.114995
v -0.620117 0.019860 1.000000
v -0.620117 0.019860 0.000000
v 0.620117 0.019860 1.000000
v 0.620117 0.019860 0.000000
v 0.620117 4.154440 0.000000
v 1.092331 5.133510 0.000000
v -1.092331 5.133510 0.000000
v 1.092331 6.859940 0.000000
v -1.092331 6.859940 0.000000
v 0.590381 4.529267 0.000000
v 0.590381 5.764919 0.000000
v 1.360441 4.529267 0.000000
v 1.360441 5.764919 0.000000
v 1.092331 6.859940 0.000000
v -1.092331 6.859940 0.000000
v 0.759597 7.181342 0.000000
v -0.759597 7.181342 0.000000
v 0.759597 7.181342 0.000000
v -0.759597 7.181342 0.000000
v -0.620117 0.019860 -1.000000
v -0.620117 4.154440 -1.000000
v 0.620117 0.019860 -1.000000
v 0.620117 4.154440 -1.000000
v -1.092331 5.133510 -1.389320
v 1.092331 5.133510 -1.389320
v -1.092331 6.859940 -1.389320
v 1.092331 6.859940 -1.389320
v 0.590381 4.529267 -0.781128
v 0.590381 5.764919 -0.781128
v 1.360441 4.529267 -0.781128
v 1.360441 5.764919 -0.781128
v 1.055344 6.072320 -0.192045
v 1.055344 6.072320 -0.650360
v 1.055344 7.072320 -0.192045
v 1.055344 7.072320 -0.650360
v 1.360027 6.072320 -0.192045
v 1.360027 6.072320 -0.650360
v 1.360027 7.072320 -0.192045
v 1.360027 7.072320 -0.650360
v 1.057029 5.749642 -0.859176
v 1.057029 5.749642 -1.332287
v 1.057029 6.749641 -0.859176
v 1.057029 6.749641 -1.332287
v 1.361712 5.749642 -0.859176
v 1.361712 5.749642 -1.332287
v 1.361712 6.749641 -0.859176
v 1.361712 6.749641 -1.332287
v -1.092331 6.859940 -1.389320
v 1.092331 6.859940 -1.389320
v -0.759597 7.181342 -1.114995
v 0.759597 7.181342 -1.114995
v -0.759597 7.181342 -1.114995
v 0.759597 7.181342 -1.114995
v -0.620117 0.019860 -1.000000
v 0.620117 0.019860 -1.000000
vn -0.0000 -0.0000 1.0000
vn -0.0000 1.0000 -0.0000
vn -1.0000 -0.0000 -0.0000
vn -0.9007 -0.4344 -0.0000
vn -0.0000 -0.3695 0.9292
vn 1.0000 -0.0000 -0.0000
vn -0.0000 -1.0000 -0.0000
vn -0.0000 -0.0000 -1.0000
vn -0.6948 0.7192 -0.0000
vn -0.0000 0.6492 0.7606
vn 0.6948 0.7192 -0.0000
vn 0.9007 -0.4344 -0.0000
vn -0.0000 -0.3695 -0.9292
vn -0.0000 0.6492 -0.7606
vt 0.075654 0.310911
vt 0.075654 0.166715
vt 0.145540 0.166715
vt 0.145540 0.310911
vt 0.236474 0.310528
vt 0.285021 0.166052
vt 0.285021 0.310528
vt 0.250078 0.310528
vt 0.250078 0.166052
vt 0.236474 0.131840
vt 0.285021 0.131840
vt 0.049045 0.131724
vt 0.172149 0.131724
vt 0.236474 0.071513
vt 0.285021 0.071513
vt 0.049045 0.071513
vt 0.172149 0.071513
vt 0.139909 0.918908
vt 0.139909 0.854411
vt 0.180681 0.854411
vt 0.180681 0.918908
vt 0.367987 0.918656
vt 0.303615 0.918656
vt 0.303615 0.853839
vt 0.367987 0.853839
vt 0.408760 0.853839
vt 0.408760 0.918656
vt 0.096002 0.854411
vt 0.096002 0.919229
vt 0.055229 0.919229
vt 0.055229 0.854411
vt 0.330606 0.843536
vt 0.330606 0.867459
vt 0.278409 0.867459
vt 0.278409 0.843536
vt 0.383550 0.904173
vt 0.383550 0.928095
vt 0.357904 0.928095
vt 0.357904 0.904173
vt 0.382803 0.843536
vt 0.382803 0.867459
vt 0.387691 0.871543
vt 0.387691 0.895466
vt 0.362045 0.895466
vt 0.362045 0.871543
vt 0.206327 0.854411
vt 0.206327 0.906608
vt 0.180681 0.906608
vt 0.069622 0.875898
vt 0.069622 0.850252
vt 0.121718 0.850252
vt 0.121718 0.875898
vt 0.226212 0.842764
vt 0.226212 0.867459
vt 0.174016 0.867459
vt 0.174016 0.842764
vt 0.231022 0.932254
vt 0.206327 0.932254
vt 0.206328 0.906608
vt 0.231022 0.906608
vt 0.226212 0.867459
vt 0.226212 0.842764
vt 0.278409 0.842764
vt 0.278409 0.867459
vt 0.205376 0.932254
vt 0.180681 0.932254
vt 0.205376 0.906608
vt 0.206327 0.854411
vt 0.231973 0.854411
vt 0.231973 0.906608
vt 0.206327 0.906608
vt 0.121718 0.875898
vt 0.173813 0.850252
vt 0.173813 0.875898
vt 0.319870 0.339877
vt 0.319870 0.291330
vt 0.338619 0.300916
vt 0.338619 0.339877
vt 0.319870 0.227005
vt 0.319870 0.350110
vt 0.309257 0.331360
vt 0.309257 0.245755
vt 0.332969 0.157119
vt 0.332969 0.227005
vt 0.298026 0.227005
vt 0.298026 0.157119
vt 0.298026 0.071513
vt 0.336987 0.071513
vt 0.336987 0.157119
vt 0.338619 0.227005
vt 0.338619 0.275553
vt 0.319870 0.275553
vt 0.319870 0.236591
vt 0.097047 0.918908
vt 0.097047 0.854411
vt 0.137819 0.854411
vt 0.137819 0.918908
vt 0.187926 0.131840
vt 0.187926 0.071513
vt 0.222870 0.166052
vt 0.187926 0.166052
vt 0.222870 0.310528
vt 0.187926 0.310528
s 0
usemtl Material.001
f 4/1/1 5/2/1 2/3/1 1/4/1
f 4/5/2 1/5/2 38/5/2 40/5/2
f 7/6/3 3/7/3 1/8/3 2/9/3
f 7/6/4 2/9/4 8/10/4 44/11/4
f 2/3/5 5/2/5 9/12/5 8/13/5
f 44/11/3 8/10/3 10/14/3 46/15/3
f 8/13/1 9/12/1 11/16/1 10/17/1
f 46/5/2 10/5/2 32/5/2 52/5/2
f 49/18/6 50/19/6 15/20/6 14/21/6
f 14/22/1 15/23/1 13/24/1 12/25/1
f 47/26/7 49/27/7 14/22/7 12/25/7
f 50/28/2 48/29/2 13/30/2 15/31/2
f 16/32/3 17/33/3 19/34/3 18/35/3
f 18/36/2 19/37/2 23/38/2 22/39/2
f 22/33/6 23/32/6 21/40/6 20/41/6
f 20/42/7 21/43/7 17/44/7 16/45/7
f 18/20/8 22/46/8 20/47/8 16/48/8
f 23/49/1 19/50/1 17/51/1 21/52/1
f 24/53/3 25/54/3 27/55/3 26/56/3
f 26/57/2 27/58/2 31/59/2 30/60/2
f 30/61/6 31/62/6 29/63/6 28/64/6
f 28/65/7 29/66/7 25/48/7 24/67/7
f 26/68/8 30/69/8 28/70/8 24/71/8
f 31/72/1 27/51/1 25/73/1 29/74/1
f 10/5/2 11/5/2 33/5/2 32/5/2
f 52/75/9 32/76/9 34/77/9 54/78/9
f 32/79/10 33/80/10 35/81/10 34/82/10
f 54/5/2 34/5/2 36/5/2 56/5/2
f 34/5/2 35/5/2 37/5/2 36/5/2
f 39/83/7 41/84/7 40/85/7 38/86/7
f 6/5/2 4/5/2 40/5/2 41/5/2
f 3/5/2 6/5/2 41/5/2 39/5/2
f 1/5/2 3/5/2 39/5/2 38/5/2
f 36/86/2 37/87/2 55/88/2 56/89/2
f 35/5/2 53/5/2 55/5/2 37/5/2
f 33/90/11 51/91/11 53/92/11 35/93/11
f 12/94/3 13/95/3 48/96/3 47/97/3
f 11/5/2 45/5/2 51/5/2 33/5/2
f 9/10/6 43/98/6 45/99/6 11/14/6
f 5/100/12 42/101/12 43/98/12 9/10/12
f 4/102/6 6/103/6 42/101/6 5/100/6
f 59/1/8 57/4/8 58/3/8 60/2/8
f 59/5/2 92/5/2 91/5/2 57/5/2
f 7/6/3 58/9/3 57/8/3 3/7/3
f 7/6/4 44/11/4 61/10/4 58/9/4
f 58/3/13 61/13/13 62/12/13 60/2/13
f 44/11/3 46/15/3 63/14/3 61/10/3
f 61/13/8 63/17/8 64/16/8 62/12/8
f 46/5/2 52/5/2 85/5/2 63/5/2
f 49/18/6 67/21/6 68/20/6 50/19/6
f 67/22/8 65/25/8 66/24/8 68/23/8
f 47/26/7 65/25/7 67/22/7 49/27/7
f 50/28/2 68/31/2 66/30/2 48/29/2
f 69/32/3 71/35/3 72/34/3 70/33/3
f 71/36/2 75/39/2 76/38/2 72/37/2
f 75/33/6 73/41/6 74/40/6 76/32/6
f 73/42/7 69/45/7 70/44/7 74/43/7
f 71/20/1 69/48/1 73/47/1 75/46/1
f 76/49/8 74/52/8 70/51/8 72/50/8
f 77/53/3 79/56/3 80/55/3 78/54/3
f 79/57/2 83/60/2 84/59/2 80/58/2
f 83/61/6 81/64/6 82/63/6 84/62/6
f 81/65/7 77/67/7 78/48/7 82/66/7
f 79/68/1 77/71/1 81/70/1 83/69/1
f 84/72/8 82/74/8 78/73/8 80/51/8
f 63/5/2 85/5/2 86/5/2 64/5/2
f 52/75/9 54/78/9 87/77/9 85/76/9
f 85/79/14 87/82/14 88/81/14 86/80/14
f 54/5/2 56/5/2 89/5/2 87/5/2
f 87/5/2 89/5/2 90/5/2 88/5/2
f 39/83/7 91/86/7 92/85/7 41/84/7
f 6/5/2 41/5/2 92/5/2 59/5/2
f 57/5/2 91/5/2 39/5/2 3/5/2
f 89/86/2 56/89/2 55/88/2 90/87/2
f 88/5/2 90/5/2 55/5/2 53/5/2
f 86/90/11 88/93/11 53/92/11 51/91/11
f 65/94/3 47/97/3 48/96/3 66/95/3
f 64/5/2 86/5/2 51/5/2 45/5/2
f 62/10/6 64/14/6 45/99/6 43/98/6
f 60/100/12 62/10/12 43/98/12 42/101/12
f 59/102/6 60/100/6 42/101/6 6/103/6
