# Blender 4.4.3
# www.blender.org
mtllib grass.mtl
o Grass
v 1.927774 0.005897 -2.305649
v 1.940900 0.000000 2.330400
v 6.739374 15.999937 2.330399
v 7.631208 17.189295 -2.330401
v 18.269636 19.510506 2.330399
v 22.945700 18.420401 -2.330401
v 29.116800 15.402800 2.330399
v -1.398100 -0.000000 -2.691300
v -1.036100 5.258500 -3.554101
v 2.864928 -0.065725 -1.433394
v 5.071600 15.073298 -3.490555
v 0.759734 15.203671 -5.241766
v 3.676304 17.707897 -12.013709
v 7.974100 17.707899 -10.210601
v 11.025799 16.352194 -16.032898
v 6.727900 16.352198 -17.835901
v 11.264200 13.195798 -19.532501
v -3.131072 -0.012263 -1.449847
v 1.092210 7.824805 -5.053631
v -4.556468 14.696852 -8.194639
v -1.178190 16.934601 -12.814734
v -8.233050 17.292009 -19.660898
v -5.225700 16.347998 -25.137201
v -11.633700 13.828598 -29.308401
v -2.670769 0.048830 1.055272
v -0.237094 0.029625 -2.920877
v -3.056627 12.486633 -4.729818
v -7.179951 16.143003 -1.837786
v -13.931801 19.206701 -6.169502
v -6.900753 17.940422 -7.196123
v -20.571102 18.420401 -10.429102
v -18.054300 18.420399 -14.351901
v -24.506701 15.402799 -15.722901
v -1.513167 0.218171 2.206940
v -1.691100 0.004208 -2.489431
v -3.438903 6.316700 -2.816801
v -8.146936 11.803478 -3.318384
v -9.754790 11.963386 1.146328
v -14.366575 9.993092 -4.545897
v -14.818900 9.993100 0.092799
v -15.372100 6.912700 -2.825300
v 0.366173 0.002918 2.991510
v -2.945852 0.034745 -0.290286
v -6.374559 11.388602 2.917412
v -3.010635 11.604080 6.141192
v -11.977104 14.710602 9.232403
v -8.569700 14.710601 12.412399
v -13.951610 13.439609 16.329403
v -17.358999 13.439601 13.149499
v -19.865700 9.927901 16.415199
v -2.053527 0.026145 2.196873
v 3.074226 12.679635 4.667667
v -1.478799 12.486591 5.433803
v 2.815098 18.487692 8.203176
v -1.466399 20.574198 12.564697
v 3.614100 21.107903 14.489498
v 4.878099 20.171902 20.429998
v 0.277600 20.171902 21.176798
v 3.566700 17.504803 26.794098
v 0.592527 5.279001 3.667552
v 3.697100 5.258500 0.190100
v 5.659680 13.693455 8.169577
v 7.234800 11.622600 3.595299
v 13.469950 16.522223 8.423752
v 12.146006 17.053400 13.700504
v -1.968253 -0.006676 -1.563217
v 1.975574 13.729064 -3.407508
v -1.968500 20.991442 -5.997581
v 1.968509 24.050671 -9.003138
v 1.968500 23.988899 -19.382704
v -1.968500 25.338955 -14.137014
v -1.968500 20.059198 -24.595503
v -1.999673 0.001386 1.443089
v -0.895418 0.006652 -2.356292
v -3.007408 19.787437 -4.323291
v -4.431371 19.778450 -0.649159
v -9.756892 23.125900 -7.270813
v -12.339797 22.697290 -4.100660
v -17.261000 17.184999 -7.699902
v -0.913700 0.000000 2.393400
v -2.188620 -0.000000 -1.331493
v -1.661475 6.848086 2.649292
v -2.936400 6.848100 -1.075601
v -7.348675 19.795368 3.977175
v -8.448688 19.320465 0.203589
v -17.838966 22.450455 3.193053
v -13.654700 22.314199 5.981298
v -19.958900 21.290100 8.139098
v -25.826401 18.014400 6.186799
v -2.580317 0.002920 0.377612
v 0.344700 6.848100 3.108099
v -1.493482 20.917133 5.973203
v -4.464922 20.423220 3.313488
v -9.810801 25.404282 11.646270
v -8.887121 24.409334 17.524015
v -14.938300 20.059202 19.638298
v -2.090945 0.013964 1.327653
v 1.695422 3.992669 2.217623
v -2.610040 13.768996 5.110440
v 0.959567 15.555677 8.240114
v -3.546750 14.507498 11.071362
v 0.078400 13.014101 12.517799
v -4.345800 9.002401 12.794099
v 0.310112 -0.002357 1.913232
v 2.574219 -0.001024 0.027201
v 0.266200 4.348200 3.097000
v 3.090789 15.778422 5.977143
v 5.046556 14.766871 2.411996
v 7.798798 19.157701 10.117296
v 11.118957 19.014936 7.918210
v 11.107699 17.502401 14.663498
v 15.209300 12.929101 15.341799
v 2.607378 -0.058536 1.533499
v 3.959185 16.261316 -2.636999
v 4.256096 16.100607 1.338170
v 7.560277 24.076616 1.508102
v 6.929400 24.076599 -2.378002
v 12.870410 27.489000 0.833296
v 13.632033 27.685890 -3.362673
v 17.888500 26.269899 -0.234502
v 22.318001 22.796600 -4.955902
v -0.677316 0.017159 -2.237337
v 3.088380 6.848051 -0.490979
v 7.029494 18.051268 -4.945857
v 3.037000 15.136200 -6.111301
v 7.267278 21.637615 -11.522973
v 11.573090 22.208704 -10.259992
v 13.099998 20.526798 -16.812201
v 16.027901 20.526798 -14.180102
vn -0.8162 0.5746 -0.0599
vn -0.6814 0.7314 0.0268
vn -0.9452 0.3210 0.0598
vn 0.0229 0.9783 -0.2060
vn 0.3859 0.9225 -0.0025
vn 0.5220 0.8424 0.1335
vn -0.3076 0.7461 0.5906
vn -0.0202 0.9952 0.0959
vn -0.2694 0.5346 0.8010
vn -0.0318 0.9967 0.0751
vn 0.0260 0.9330 -0.3590
vn 0.2210 0.8207 -0.5269
vn 0.3195 0.5637 -0.7617
vn 0.0726 0.5644 0.8223
vn 0.3037 0.6366 0.7089
vn 0.1631 0.2227 0.9611
vn 0.0863 0.9337 0.3476
vn 0.0820 0.9904 -0.1116
vn -0.1349 0.9239 -0.3580
vn -0.2163 0.8723 -0.4386
vn 0.7801 0.2591 0.5696
vn 0.6456 0.4960 0.5808
vn 0.8337 0.3017 0.4624
vn -0.1214 0.9467 -0.2982
vn -0.2507 0.9327 -0.2591
vn -0.5065 0.7986 -0.3250
vn 0.9371 0.2871 0.1985
vn 0.7096 0.5984 0.3720
vn 0.9159 0.0662 -0.3959
vn 0.2539 0.9476 0.1936
vn -0.5760 0.8174 0.0122
vn 0.2340 0.9713 0.0429
vn -0.8018 0.5918 -0.0834
vn -0.9803 0.1730 -0.0956
vn 0.0591 0.9974 -0.0403
vn -0.1918 0.9758 0.1052
vn 0.0848 0.9907 -0.1062
vn -0.4147 0.7941 0.4444
vn -0.5439 0.6037 0.5828
vn -0.1344 0.1613 -0.9777
vn -0.1700 0.2867 -0.9428
vn -0.1566 0.1645 -0.9739
vn -0.0847 0.4189 -0.9041
vn -0.3351 0.5767 -0.7451
vn -0.1278 0.9617 -0.2426
vn 0.0562 0.9381 0.3419
vn -0.0998 0.9451 0.3112
vn 0.0899 0.8281 0.5533
vn -0.7457 0.1026 -0.6583
vn -0.6142 0.4903 -0.6184
vn -0.7212 0.2916 -0.6283
vn -0.7455 0.0850 -0.6610
vn -0.5980 0.5391 -0.5931
vn -0.2182 0.8616 -0.4583
vn -0.2222 0.9405 -0.2571
vn 0.0004 0.1340 0.9910
vn -0.1621 0.2227 0.9613
vn 0.1392 0.1300 0.9817
vn 0.0578 0.5588 0.8273
vn -0.0271 0.8631 0.5043
vn 0.0609 0.9981 0.0031
vn -0.1342 0.9307 -0.3403
vn -0.2824 0.8564 -0.4323
vn -0.2150 0.9699 -0.1141
vn -0.3367 0.9403 0.0496
vn -0.7231 0.6154 -0.3136
vn 0.9399 0.1147 -0.3217
vn 0.9115 0.2682 -0.3120
vn 0.9123 0.2640 -0.3130
vn 0.6264 0.7299 -0.2737
vn -0.0972 0.9953 0.0001
vn 0.5936 0.7516 -0.2877
vn 0.1579 0.9691 -0.1895
vn -0.4114 0.9088 0.0694
vn -0.4859 0.8731 -0.0415
vn -0.2343 0.9620 0.1399
vn 0.1821 0.9823 -0.0435
vn -0.5171 0.8268 0.2212
vn 0.1309 0.0648 -0.9893
vn 0.0618 0.2090 -0.9760
vn -0.0283 0.1390 -0.9899
vn 0.1808 0.6778 -0.7126
vn 0.0720 0.9708 -0.2289
vn -0.0543 0.5336 0.8440
vn -0.1617 0.7990 0.5792
vn -0.2339 0.3211 0.9177
vn 0.1067 0.9897 -0.0956
vn 0.6115 0.7718 0.1741
vn 0.7245 0.6723 0.1520
vn -0.9650 0.2513 0.0747
vn -0.7500 0.6573 0.0743
vn -0.9635 0.2514 0.0915
vn -0.2213 0.9741 0.0472
vn 0.4290 0.8941 -0.1286
vn 0.0007 0.9998 -0.0186
vn 0.4482 0.8671 -0.2174
vn -0.5680 0.1044 0.8164
vn -0.6945 0.3467 0.6304
vn -0.6276 0.2054 0.7509
vn -0.6953 0.4867 0.5288
vn -0.5913 0.6671 0.4532
vn -0.2700 0.9404 0.2069
vn -0.0834 0.9965 0.0049
vn 0.4708 0.8108 -0.3476
vn 0.3901 0.8121 -0.4340
vn 0.5250 0.6190 -0.5841
vn -0.9736 0.2281 0.0031
vn -0.3078 0.2690 0.9126
vn -0.2719 0.1240 0.9543
vn -0.2129 0.1303 0.9683
vn -0.2949 0.1183 0.9482
vn 0.1500 0.9880 -0.0364
vn 0.2897 0.9001 0.3254
vn 0.2451 0.2752 0.9296
vn 0.2140 0.3107 0.9261
vn 0.6980 0.5467 0.4625
vn 0.9184 0.1213 -0.3767
vn 0.5531 0.5813 -0.5968
vn 0.5695 0.3755 -0.7312
vn 0.6408 0.4579 -0.6161
vn 0.5067 0.7871 -0.3518
vn -0.0895 0.3142 -0.9451
vn -0.1108 0.9924 -0.0529
vn 0.7276 0.6064 0.3207
vn 0.9378 0.1403 0.3175
vn 0.7049 0.6342 0.3177
vn 0.0152 0.9963 -0.0841
vn 0.5787 0.6076 -0.5441
vn 0.4855 0.1612 -0.8593
vn 0.4921 0.1483 -0.8578
vn 0.4683 0.1515 -0.8705
vn -0.7497 0.6270 -0.2116
vn 0.5671 0.6858 -0.4561
vn -0.5605 0.5596 -0.6105
vn -0.6689 0.2530 -0.6990
vn -0.6952 0.2513 -0.6735
vn -0.4655 0.6898 -0.5545
vn 0.1168 0.1312 -0.9845
vn -0.6537 0.1841 -0.7340
vn -0.0574 0.9896 -0.1318
vn -0.7671 0.6354 0.0891
vn -0.9484 0.1747 0.2647
vn -0.9809 0.1265 0.1477
vt 0.750800 0.454196
vt 0.247900 0.479980
vt 0.247900 0.099629
vt 0.750800 0.686520
vt 0.247900 0.766700
vt 0.247900 0.900100
vt 0.584000 0.460571
vt 0.387700 0.650400
vt 0.387700 0.463373
vt 0.584000 0.650400
vt 0.584000 0.808400
vt 0.387700 0.808400
vt 0.387700 0.966300
vt 0.584522 0.240412
vt 0.387700 0.451010
vt 0.387700 0.020547
vt 0.584000 0.541746
vt 0.387700 0.723091
vt 0.485900 0.966300
vt 0.584000 0.018612
vt 0.584000 0.334500
vt 0.387700 0.018660
vt 0.584000 0.018635
vt 0.485900 0.018905
vt 0.584000 0.545437
vt 0.584000 0.808400
vt 0.387700 0.592401
vt 0.387700 0.808400
vt 0.485900 0.018600
vt 0.387700 0.338716
vt 0.387700 0.018600
vt 0.584000 0.334500
vt 0.387700 0.492500
vt 0.584000 0.588019
vt 0.387700 0.808400
vt 0.387749 0.018600
vt 0.584040 0.176600
vt 0.387700 0.176600
vt 0.584000 0.018600
vt 0.387700 0.334500
vt 0.584000 0.417810
vt 0.387700 0.589466
vt 0.584006 0.289364
vt 0.387741 0.018571
vt 0.387700 0.450640
vt 0.584000 0.551783
vt 0.387700 0.682080
vt 0.387700 0.715491
vt 0.584111 0.680981
vt 0.584000 0.176600
vt 0.387700 0.176600
vt 0.584000 0.460685
vt 0.584000 0.720703
vt 0.387700 0.472489
vt 0.387700 0.810742
vt 0.584000 0.704156
vt 0.387700 0.182442
vt 0.584000 0.473329
vt 0.387700 0.597085
vt 0.584000 0.736239
vt 0.387700 0.675334
vt 0.583999 0.330287
vt 0.584000 0.492500
vt 0.387700 0.690618
vt 0.584000 0.176600
vt 0.388163 0.018504
vt 0.584000 0.431293
vt 0.387700 0.598125
vt 0.584000 0.650400
vt 0.750800 0.099600
vt 0.584001 0.019083
vt 0.584000 0.520830
vt 0.387700 0.443987
vt 0.387700 0.020321
vt 0.387700 0.430959
vt 0.387700 0.018731
vt 0.584000 0.018675
vt 0.584000 0.424634
vt 0.584000 0.018680
vt 0.387700 0.469091
vt 0.388497 0.018607
vt 0.584000 0.019008
vt 0.584000 0.470367
vt 0.583999 0.433990
vt 0.583965 0.018600
vt 0.584000 0.966300
vt 0.387700 0.447391
vt 0.387700 0.427195
vt 0.387700 0.018808
vt 0.584000 0.468360
vt 0.584000 0.018549
vt 0.583913 0.018600
vt 0.387700 0.492500
vt 0.387700 0.018648
vt 0.583539 0.018600
s 1
f 3/1/1 4/2/2 1/3/3
f 5/4/4 6/5/5 4/2/2
f 6/5/5 5/4/4 7/6/6
f 11/7/7 13/8/8 12/9/9
f 11/7/7 14/10/10 13/8/8
f 14/10/10 15/11/11 13/8/8
f 16/12/12 15/11/11 17/13/13
f 19/14/14 20/15/15 18/16/16
f 19/14/14 21/17/17 20/15/15
f 22/18/18 23/11/19 24/19/20
f 26/20/21 27/21/22 25/22/23
f 31/12/24 32/11/25 33/19/26
f 35/23/27 36/21/28 73/24/29
f 37/25/30 39/26/31 38/27/32
f 40/12/33 39/26/31 41/13/34
f 46/10/35 48/28/36 47/8/37
f 48/28/36 49/11/38 50/19/39
f 104/29/40 52/30/41 113/31/42
f 53/32/43 54/33/44 52/30/41
f 55/34/45 58/11/46 57/35/47
f 57/35/47 58/11/46 59/19/48
f 105/36/49 60/37/50 61/38/51
f 42/39/52 60/37/50 105/36/49
f 63/40/53 62/41/54 64/42/55
f 1/39/56 67/43/57 66/44/58
f 67/43/57 68/45/59 66/44/58
f 69/46/60 71/47/61 68/45/59
f 69/46/60 70/11/62 71/47/61
f 71/47/61 70/11/62 72/13/63
f 78/48/64 77/49/65 79/13/66
f 81/39/67 83/50/68 82/51/69
f 83/50/68 85/52/70 82/51/69
f 85/52/70 86/53/71 84/54/72
f 87/8/73 86/53/71 88/12/74
f 88/12/74 86/53/71 89/13/75
f 95/55/76 94/56/77 96/13/78
f 104/29/79 98/57/80 113/31/81
f 99/58/82 100/59/83 98/57/80
f 102/12/84 101/60/85 103/13/86
f 110/61/87 111/11/88 112/13/89
f 115/62/90 116/63/91 114/40/92
f 118/10/93 120/11/94 119/64/95
f 119/64/95 120/11/94 121/19/96
f 105/39/97 123/65/98 122/66/99
f 125/40/100 124/67/101 126/68/102
f 127/69/103 128/12/104 126/68/102
f 128/12/104 129/11/105 17/19/106
f 2/70/107 3/1/1 1/3/3
f 10/71/108 9/38/109 8/31/110 122/29/111
f 3/1/1 5/4/4 4/2/2
f 12/9/9 9/38/109 10/71/108 11/7/7
f 32/11/25 31/12/24 29/8/112 30/72/113
f 13/8/8 15/11/11 16/12/12
f 18/16/16 122/29/114 19/14/14
f 122/29/114 1/39/115 19/14/14
f 20/15/15 21/17/17 22/18/18
f 21/17/17 23/11/19 22/18/18
f 25/22/23 27/21/22 28/73/116
f 27/21/22 30/72/113 28/73/116
f 28/73/116 30/72/113 29/8/112
f 37/25/30 38/27/32 34/74/117 36/21/28
f 73/24/29 36/21/28 34/74/117
f 45/75/118 42/76/119 43/77/120 44/78/121
f 38/27/32 39/26/31 40/12/33
f 46/10/35 47/8/37 45/75/118 44/78/121
f 63/40/53 61/38/51 60/37/50 62/41/54
f 46/10/35 49/11/38 48/28/36
f 104/29/40 51/79/122 52/30/41
f 52/30/41 51/79/122 53/32/43
f 53/32/43 55/34/45 54/33/44
f 54/33/44 55/34/45 56/8/123
f 56/8/123 55/34/45 57/35/47
f 76/80/124 73/81/125 74/82/125 75/83/126
f 62/41/54 65/10/127 64/42/55
f 67/43/57 69/46/60 68/45/59
f 78/48/64 76/80/124 75/83/126 77/49/65
f 93/84/128 91/38/129 104/31/130 90/85/131
f 77/49/65 33/86/132 79/19/66
f 80/31/67 81/39/67 82/51/69
f 82/51/69 85/52/70 84/54/72
f 84/54/72 86/53/71 87/8/73
f 94/56/77 95/55/76 92/87/133 93/84/128
f 91/38/129 93/84/128 92/87/133
f 108/88/134 105/89/135 106/50/136 107/90/137
f 104/29/79 97/91/138 98/57/80
f 97/91/138 99/58/82 98/57/80
f 99/58/82 101/60/85 100/59/83
f 100/59/83 101/60/85 102/12/84
f 104/92/139 106/50/136 105/89/135
f 109/10/140 110/61/87 108/88/134 107/90/137
f 119/64/95 117/93/141 116/63/91 118/10/93
f 109/10/140 111/11/88 110/61/87
f 1/94/142 113/95/143 115/62/90
f 1/94/142 115/62/90 114/40/92
f 114/40/92 116/63/91 117/93/141
f 125/40/100 122/66/99 123/65/98 124/67/101
f 126/68/102 124/67/101 127/69/103
f 127/69/103 129/11/105 128/12/104
